<?xml version="1.0" encoding="UTF-8"?>
<svg width="280px" height="356px" viewBox="0 0 280 356" version="1.1" xmlns="http://www.w3.org/2000/svg" xmlns:xlink="http://www.w3.org/1999/xlink">
    <!-- Generator: Sketch Beta 63 (92418) - https://sketch.com -->
    <title>icon-color-system-plugin-light</title>
    <desc>Created with Sketch Beta.</desc>
    <g id="icon-color-system-plugin-light" stroke="none" stroke-width="1" fill="none" fill-rule="evenodd">
        <g id="Group-11" transform="translate(64.000000, 80.000000)">
            <g id="Group-10" transform="translate(1.084268, 26.000000)">
                <path d="M99.4484474,-0.00082087951 C103.865706,0.684655101 108.883514,2.5863602 117.831506,7.71590354 L136.983974,18.7725399 C148.951181,25.6818101 152.571381,29.4333132 155.595533,34.2990318 C158.619685,39.1647505 160.070874,44.5806627 159.884741,50.3065747 L159.854,51.0502732 C159.582587,56.4031072 158.18213,61.4563825 151.826761,72.5427073 L102.806466,152.914264 L102.171917,154.002915 C95.8877649,164.679157 91.4124538,169.105128 85.9442164,172.503758 C80.2937044,176.015677 74.004258,177.700929 67.3548118,177.484774 C60.8126147,177.272106 54.6282844,175.626682 43.5078383,169.267462 L15.6353458,153.176776 C7.91456705,148.719182 5.57895416,146.298858 3.62788831,143.159684 C1.67682246,140.020511 0.740571298,136.526374 0.860657225,132.832237 L0.876999709,132.4233" id="Path" stroke="#000000" stroke-width="8"></path>
                <path d="M98.7387961,14.9568215 C100.645777,15.6085904 102.983437,16.7320825 106.311376,18.6660831 L135.711676,35.7517955 C143.817337,40.462325 146.594541,50.8950398 141.914736,59.0539162 C141.872615,59.1273508 141.829951,59.2004682 141.786747,59.2732624 L90.3238937,145.297512 C85.8189753,152.887794 82.9772125,155.662025 79.4388932,157.827601 C75.900574,159.993177 71.9809989,161.018852 67.8428618,160.862052 C63.7047247,160.705252 60.8804499,159.675391 53.2733359,155.254587 L51.0413229,152.795192 L49.6167316,147.725836" id="Shape" stroke="#000000" stroke-width="8" opacity="0.200000003"></path>
                <path d="M13.5574875,150.059238 C16.0313964,150.678713 19.3096086,151 24.5545836,151 L24.5545836,151 L36.5465338,151.002244 C36.7660723,151.821572 36.9584429,152.539509 37.1191366,153.139227 C38.6501999,158.853233 40.9201115,162.77124 43.9288713,164.893248 L15.0748698,150.873546 C14.6356369,150.660129 14.2071902,150.433422 13.7897785,150.194143 Z" id="Combined-Shape" fill="#000000"></path>
            </g>
            <g id="Card">
                <path d="M39.7402206,-1.60555248e-15 L61.2597794,1.60555248e-15 C75.0783199,-9.32872226e-16 80.0892566,1.43879697 85.1411084,4.14055691 C90.1929603,6.84231684 94.1576832,10.8070397 96.8594431,15.8588916 C99.561203,20.9107434 101,25.9216801 101,39.7402206 L101,133.187098 C101,146.429997 99.329139,152.716556 96.1916113,158.583223 C93.0540837,164.449889 88.4498893,169.054084 82.5832227,172.191611 C76.716556,175.329139 70.4299974,177 57.1870978,177 L25.638852,177 C16.7236646,177 13.4908022,176.071744 10.231543,174.328673 C6.97228371,172.585602 4.41439796,170.027716 2.67132704,166.768457 C0.928256111,163.509198 4.01235366e-16,160.276335 -6.90560205e-16,151.361148 L1.07036832e-15,39.7402206 C-6.21914817e-16,25.9216801 1.43879697,20.9107434 4.14055691,15.8588916 C6.84231684,10.8070397 10.8070397,6.84231684 15.8588916,4.14055691 C20.9107434,1.43879697 25.9216801,9.32872226e-16 39.7402206,-1.60555248e-15 Z" id="Rectangle" stroke="#000000" stroke-width="8"></path>
                <path d="M35.0749668,16 C28.184087,16 25.6290697,16.5760964 23.0947841,17.9314471 C20.8688353,19.1218976 19.1218976,20.8688353 17.9314471,23.0947841 C16.5760964,25.6290697 16,28.184087 16,35.0749668 L16.0005104,116.683344 C16.0067395,118.536021 16.0497462,119.224952 16.2272313,119.979269 C16.3575897,120.533296 16.5645129,121.023219 16.870772,121.502952 C17.313154,122.195913 17.8078099,122.73135 19.2981058,124.180885 L56.1244608,160 L59.4693112,160 C67.6450868,160 71.352276,159.130139 74.835753,157.267155 C78.0394796,155.553783 80.553783,153.03948 82.2671548,149.835753 C84.1301386,146.352276 85,142.645087 85,134.469311 L85,35.0749668 C85,28.184087 84.4239036,25.6290697 83.0685529,23.0947841 C81.8781024,20.8688353 80.1311647,19.1218976 77.9052159,17.9314471 C75.3709303,16.5760964 72.815913,16 65.9250332,16 L35.0749668,16 Z" id="Rectangle" stroke="#000000" stroke-width="8" opacity="0.200000003"></path>
                <path d="M3.74866235,118.896 L3.75817798,119.279541 C3.90867318,123.749127 5.43361646,127.433616 8.33300781,130.333008 L8.94446677,130.944467 C15.5432368,137.543237 38.1557723,160.155772 44.2255859,166.225586 C48.4085286,170.408529 52.3333333,172.666667 56,173 L24.0018504,175.285582 C12.4333446,176.111904 2.3853515,167.403643 1.55902966,155.835137 C1.49130898,154.887048 1.48803519,153.935455 1.54923087,152.986922 L3.74866235,118.896 Z M16,154 C12.1340068,154 9,157.134007 9,161 C9,164.865993 12.1340068,168 16,168 C19.8659932,168 23,164.865993 23,161 C23,157.134007 19.8659932,154 16,154 Z M4,115 L3.74866235,118.896 L3.74828296,118.871052 C3.73199319,117.775981 3.79647906,116.63477 3.94174057,115.447419 L4,115 Z" id="Combined-Shape" fill="#000000"></path>
            </g>
        </g>
    </g>
</svg>