<?xml version="1.0" encoding="UTF-8"?>
<svg width="280px" height="356px" viewBox="0 0 280 356" version="1.1" xmlns="http://www.w3.org/2000/svg" xmlns:xlink="http://www.w3.org/1999/xlink">
    <!-- Generator: Sketch Beta 63 (92418) - https://sketch.com -->
    <title>icon-app-icon-template-dark</title>
    <desc>Created with Sketch Beta.</desc>
    <g id="icon-app-icon-template-dark" stroke="none" stroke-width="1" fill="none" fill-rule="evenodd">
        <g id="Group-3" transform="translate(71.000000, 63.000000)">
            <g id="Group-2" transform="translate(69.000000, 115.000000) rotate(90.000000) translate(-69.000000, -115.000000) translate(-46.000000, 46.000000)">
                <path d="M46.1499336,-1.86451255e-15 L90.8500664,1.86451255e-15 C106.897404,-1.08333549e-15 112.716556,1.670861 118.583223,4.80838867 C124.449889,7.94591634 129.054084,12.5501107 132.191611,18.4167773 C135.329139,24.283444 137,30.1025963 137,46.1499336 L137,90.8500664 C137,106.897404 135.329139,112.716556 132.191611,118.583223 C129.054084,124.449889 124.449889,129.054084 118.583223,132.191611 C112.716556,135.329139 106.897404,137 90.8500664,137 L46.1499336,137 C30.1025963,137 24.283444,135.329139 18.4167773,132.191611 C12.5501107,129.054084 7.94591634,124.449889 4.80838867,118.583223 C1.670861,112.716556 7.22223659e-16,106.897404 -1.24300837e-15,90.8500664 L1.24300837e-15,46.1499336 C-7.22223659e-16,30.1025963 1.670861,24.283444 4.80838867,18.4167773 C7.94591634,12.5501107 12.5501107,7.94591634 18.4167773,4.80838867 C24.283444,1.670861 30.1025963,1.08333549e-15 46.1499336,-1.86451255e-15 Z" id="Rectangle" stroke="#FFFFFF" stroke-width="8"></path>
                <path d="M181.202737,-1.13942434e-15 L201.797263,1.13942434e-15 C211.603969,-6.62038354e-16 215.160118,1.02108172 218.745303,2.93845974 C222.330488,4.85583776 225.144162,7.66951208 227.06154,11.2546973 C228.978918,14.8398824 230,18.3960311 230,28.2027372 L230,48.7972628 C230,58.6039689 228.978918,62.1601176 227.06154,65.7453027 C225.144162,69.3304879 222.330488,72.1441622 218.745303,74.0615403 C215.160118,75.9789183 211.603969,77 201.797263,77 L181.202737,77 C171.396031,77 167.839882,75.9789183 164.254697,74.0615403 C160.669512,72.1441622 157.855838,69.3304879 155.93846,65.7453027 C154.021082,62.1601176 153,58.6039689 153,48.7972628 L153,28.2027372 C153,18.3960311 154.021082,14.8398824 155.93846,11.2546973 C157.855838,7.66951208 160.669512,4.85583776 164.254697,2.93845974 C167.839882,1.02108172 171.396031,6.62038354e-16 181.202737,-1.13942434e-15 Z" id="Rectangle-Copy-3" stroke="#FFFFFF" stroke-width="8"></path>
                <path d="M166.844979,93 L180.155021,93 C184.969222,93 186.714967,93.5012583 188.474967,94.4425165 C190.234967,95.3837748 191.616225,96.765033 192.557483,98.5250329 C193.498742,100.285033 194,102.030778 194,106.844979 L194,120.155021 C194,124.969222 193.498742,126.714967 192.557483,128.474967 C191.616225,130.234967 190.234967,131.616225 188.474967,132.557483 C186.714967,133.498742 184.969222,134 180.155021,134 L166.844979,134 C162.030778,134 160.285033,133.498742 158.525033,132.557483 C156.765033,131.616225 155.383775,130.234967 154.442517,128.474967 C153.501258,126.714967 153,124.969222 153,120.155021 L153,106.844979 C153,102.030778 153.501258,100.285033 154.442517,98.5250329 C155.383775,96.765033 156.765033,95.3837748 158.525033,94.4425165 C160.285033,93.5012583 162.030778,93 166.844979,93 Z" id="Rectangle-Copy-4" stroke="#FFFFFF" stroke-width="8"></path>
                <path d="M216.64559,94 L223.35441,94 C225.665226,94 226.503184,94.240604 227.347984,94.692408 C228.192784,95.1442119 228.855788,95.8072159 229.307592,96.6520159 C229.759396,97.4968159 230,98.3347738 230,100.64559 L230,107.35441 C230,109.665226 229.759396,110.503184 229.307592,111.347984 C228.855788,112.192784 228.192784,112.855788 227.347984,113.307592 C226.503184,113.759396 225.665226,114 223.35441,114 L216.64559,114 C214.334774,114 213.496816,113.759396 212.652016,113.307592 C211.807216,112.855788 211.144212,112.192784 210.692408,111.347984 C210.240604,110.503184 210,109.665226 210,107.35441 L210,100.64559 C210,98.3347738 210.240604,97.4968159 210.692408,96.6520159 C211.144212,95.8072159 211.807216,95.1442119 212.652016,94.692408 C213.496816,94.240604 214.334774,94 216.64559,94 Z" id="Rectangle-Copy-5" stroke="#FFFFFF" stroke-width="8"></path>
                <path d="M211.989324,125 C213.538243,125 214.503184,125.240604 215.347984,125.692408 C216.192784,126.144212 216.855788,126.807216 217.307592,127.652016 C217.759396,128.496816 218,129.461757 218,131.010676 L218,131.989324 C218,133.538243 217.759396,134.503184 217.307592,135.347984 C216.855788,136.192784 216.192784,136.855788 215.347984,137.307592 C214.503184,137.759396 213.538243,138 211.989324,138 L211.010676,138 C209.461757,138 208.496816,137.759396 207.652016,137.307592 C206.807216,136.855788 206.144212,136.192784 205.692408,135.347984 C205.240604,134.503184 205,133.538243 205,131.989324 L205,131.010676 C205,129.461757 205.240604,128.496816 205.692408,127.652016 C206.144212,126.807216 206.807216,126.144212 207.652016,125.692408 C208.496816,125.240604 209.461757,125 211.010676,125 L211.989324,125 Z" id="Rectangle-Copy-6" fill="#FFFFFF" fill-rule="nonzero"></path>
            </g>
            <circle id="Oval" stroke="#FFFFFF" stroke-width="8" opacity="0.300000012" cx="69" cy="69" r="37"></circle>
            <circle id="Oval-Copy" stroke="#FFFFFF" stroke-width="8" opacity="0.300000012" cx="99.5" cy="191.5" r="16.5"></circle>
            <circle id="Oval-Copy-2" stroke="#FFFFFF" stroke-width="8" opacity="0.300000012" cx="24.5" cy="174.5" r="4.5"></circle>
        </g>
    </g>
</svg>