<?xml version="1.0" encoding="UTF-8"?>
<svg width="280px" height="356px" viewBox="0 0 280 356" version="1.1" xmlns="http://www.w3.org/2000/svg" xmlns:xlink="http://www.w3.org/1999/xlink">
    <title>Product Icon/Noter/Dark</title>
    <g id="Product-Icon/Noter/Dark" stroke="none" stroke-width="1" fill="none" fill-rule="evenodd">
        <g id="Group-9" transform="translate(72.000000, 93.000000)">
            <path d="M46.1499336,1.762824e-15 L90.8500664,1.86451255e-15 C106.897404,-1.08333549e-15 112.716556,1.670861 118.583223,4.80838867 C124.449889,7.94591634 129.054084,12.5501107 132.191611,18.4167773 C135.329139,24.283444 137,30.1025963 137,46.1499336 L137,122.850066 C137,138.897404 135.329139,144.716556 132.191611,150.583223 C129.054084,156.449889 124.449889,161.054084 118.583223,164.191611 C112.716556,167.329139 106.897404,169 90.8500664,169 L46.1499336,169 C30.1025963,169 24.283444,167.329139 18.4167773,164.191611 C12.5501107,161.054084 7.94591634,156.449889 4.80838867,150.583223 C1.670861,144.716556 7.22223659e-16,138.897404 -1.24300837e-15,122.850066 L1.24300837e-15,46.1499336 C-7.22223659e-16,30.1025963 1.670861,24.283444 4.80838867,18.4167773 C7.94591634,12.5501107 12.5501107,7.94591634 18.4167773,4.80838867 C24.283444,1.670861 30.1025963,-1.02425151e-15 46.1499336,1.762824e-15 Z" id="Rectangle" stroke="#FFFFFF" stroke-width="8"></path>
            <g id="Group-8" transform="translate(24.000000, 23.000000)" fill="#FFFFFF">
                <circle id="Oval" cx="7.19999981" cy="7.19999981" r="7.19999981"></circle>
                <circle id="Oval-Copy-3" cx="32.3999991" cy="7.19999981" r="7.19999981"></circle>
                <circle id="Oval-Copy-4" cx="57.5999985" cy="7.19999981" r="7.19999981"></circle>
                <circle id="Oval-Copy-5" cx="82.7999978" cy="7.19999981" r="7.19999981"></circle>
            </g>
            <rect id="Rectangle" fill="#FFFFFF" opacity="0.300000012" x="24" y="59" width="90" height="9"></rect>
            <rect id="Rectangle-Copy-9" fill="#FFFFFF" opacity="0.300000012" x="24" y="79" width="66" height="9"></rect>
        </g>
    </g>
</svg>